<?xml version="1.0" encoding="utf-8"?>
<!-- Generator: Adobe Illustrator 21.1.0, SVG Export Plug-In . SVG Version: 6.00 Build 0)  -->
<svg version="1.1" id="Stroke_Version" xmlns="http://www.w3.org/2000/svg" xmlns:xlink="http://www.w3.org/1999/xlink" x="0px"
	 y="0px" viewBox="0 0 934.4 353.6" style="enable-background:new 0 0 934.4 353.6;" xml:space="preserve">
<style type="text/css">
	.st0{display:none;fill:#231F20;}
	.st1{fill:#E98300;}
	.st2{fill:#666666;}
</style>
<path class="st0" d="M79.9,117c-2.6-5.4,2.6-8,2.6-8c7.6-3,17.6-13.2,33.4-13.2c18.7,0,26.7,25.4,28.7,31.9c0,0,0.6,2.5,1.9,2.5
	c0.5,0,1.1-0.4,1.8-1.4C182.6,84.8,198,74.2,198,74.2c3.9-2.8,6.4-3.7,7.9-3.7c2.8,0,2.3,3.1,1.5,3.7c-1.3,0.9-7.8,7.6-16.9,24.3
	c-24.3,35-43,74.5-43,74.5c3,32.4-2.4,39.3-5,43.2c-2.6,3.9-10.4,17.2-10.4,17.2s-2.4,10.4-2.8,20c-0.4,9.1-4.8,9.3-5.2,9.3
	c0,0,0,0,0,0c-0.1,0-0.2,0-0.4,0c-13.9,0-11.2-36.7-11.2-36.7c-3,0.4-6.1,2.8-6.1,2.8c-5.2,5.1-8.6,6.6-10.8,6.6
	c-3.3,0-4.1-3.3-4.1-3.3c-4.2-16.9,26.3-38.7,26.3-38.7s-5.7-19.9-3.5-37.9c2.2-18-1.1-31.7-1.1-31.7c-0.9-0.1-1.7-0.2-2.6-0.2
	c-5.9,0-10.9,2.3-10.9,2.3c-2.8,1.3-5.2,1.9-7.2,1.9C85.2,127.7,81.9,121.2,79.9,117z"/>
<path class="st1" d="M177.1,127.6l0-0.1C177.1,127.6,177.1,127.6,177.1,127.6c-13.3,22-22.8,41.5-25.1,46.2
	c2.8,32-2.6,40.1-5.6,44.5l-0.2,0.3c-2.2,3.3-8.4,13.7-9.9,16.3c-0.5,2.4-2.2,10.8-2.6,18.5c-0.6,13-8.4,13.6-9.6,13.6
	c-0.2,0-0.3,0-0.5,0c-3.3,0-6.4-1.4-8.7-3.9c-6-6.5-7.1-20.5-7.1-29.6c-4.6,4.2-8.6,6.2-12.2,6.2c-4.7,0-7.7-3.5-8.5-6.8
	c-4.2-16.7,17.6-35.4,25.6-41.5c-1.5-6.4-4.6-22-2.8-36.7c1.4-12,0.4-21.9-0.4-26.8c-4.3,0.3-7.8,1.9-7.8,1.9
	c-3.2,1.5-6.3,2.3-9.1,2.3c-3.1,0-5.6-0.9-7.7-2.2l0,0c-40.2,18.6-68.1,59.1-68.1,106.3c0,27.3,9.4,52.3,25.1,72.2l0,0
	c86.4-41,123.2-41,138.1-41l4.3,0l0.3,0c6,0.9,9.8,5.7,9.6,11.9c-0.2,5.6-3.9,11.9-10.3,12.3l-0.3,0l-0.3,0c-1.9-0.1-3.9-0.2-6-0.2
	c-40.8,0-93.4,20.2-106.9,27.2c-5.7,2.9-10,4.5-13.5,5.4l0,0c20.6,18.1,47.5,29.2,77.1,29.2c64.7,0,117.2-52.5,117.2-117.2
	C250.9,187,220.3,144.9,177.1,127.6z"/>
<path class="st2" d="M405,262c-4.5,0-9,1.4-12.1,4.6l3.7,3.8c1.9-1.8,4.6-3,7.6-3c3.8,0,6.5,1.8,6.5,5.4v0.8H409
	c-7.1,0-18,0.6-18,9.9c0,5.6,5.1,8.6,10.4,8.6c3.8,0,7.1-1.4,9.2-4.6h0.2v3.9h6.4v-16.4C417.2,270.8,417.2,262,405,262z
	 M410.4,280.1c0,4-2.3,6.5-7.2,6.5c-2.3,0-5-1.1-5-3.8c0-4.1,6.8-4.4,10.7-4.4h1.5V280.1z M477.9,291.3h7.1v-45h-7.1V291.3z
	 M441.9,262c-5.4,0-8.2,2.5-9.7,4.3H432v-20h-7.1v45h6.8V287h0.1c2.1,3.5,5.8,5,9.8,5c8.8,0,14.1-6.6,14.1-15
	C455.7,268.6,450,262,441.9,262z M440.2,285.6c-5.2,0-8.4-4.1-8.4-8.6c0-4.5,3.2-8.6,8.4-8.6c5.2,0,8.4,4.1,8.4,8.6
	C448.6,281.5,445.4,285.6,440.2,285.6z M462.5,291.3h7.1v-28.5h-7.1V291.3z M466,248.8c-2.6,0-4.5,2-4.5,4.3c0,2.3,1.9,4.3,4.5,4.3
	c2.6,0,4.6-1.8,4.6-4.3S468.6,248.8,466,248.8z M450.5,216.4h7.1v-45h-7.1V216.4z M149.5,104.9c0.5,0,1,0,1.5-0.1l1.4-0.2
	c12,0,12.1-15.6,11.6-20.2c0,0-0.4-19.9-14-20.4l-1.4,0.2c-13.5,2.2-11.5,21.9-11.5,21.9C137.1,90.4,139,104.9,149.5,104.9z
	 M400.8,216.4l11.2-28.5h-7.3l-7.7,20h-0.1l-7.6-20h-7.8l11.7,28.5H400.8z M183.7,272.1c-1.2,0-2.5,0-4,0c-19.5,0-64.1,2-171.6,58.2
	c-5.8,3.4-3.9,7.1,0.8,7.1c1.5,0,3.2-0.4,5.1-1.3c7.7-3.6,20.8-11.7,27.6-14c6.8-2.2,10.8,0.9,26.6-7.2c15-7.7,68-27.7,108.9-27.7
	c2.1,0,4.2,0.1,6.2,0.2C190,287,192.8,273.5,183.7,272.1z M632.5,200.8c0-3.8,1.8-7.3,6.5-7.3c5,0,5.2,5.2,5.2,8.4v14.4h7.1v-18
	c0-5.8-2.7-11.2-10.4-11.2c-4.8,0-7.4,2.4-8.7,5.3h-0.1v-4.6h-6.8v28.5h7.1V200.8z M721.9,171.4h-7.1v45h7.1V171.4z M205.9,70.5
	c-1.5,0-4,0.9-7.9,3.7c0,0-15.4,10.6-49.7,54.5c-0.7,1-1.3,1.4-1.8,1.4c-1.3,0-1.9-2.5-1.9-2.5c-1.9-6.5-10-31.9-28.7-31.9
	c-15.8,0-25.8,10.2-33.4,13.2c0,0-5.2,2.6-2.6,8c2,4.2,5.3,10.8,12.5,10.8c2.1,0,4.5-0.5,7.2-1.9c0,0,5-2.3,10.9-2.3
	c0.8,0,1.7,0,2.6,0.2c0,0,3.3,13.7,1.1,31.7c-2.2,18,3.5,37.9,3.5,37.9s-30.5,21.8-26.3,38.7c0,0,0.8,3.3,4.1,3.3
	c2.3,0,5.7-1.5,10.8-6.6c0,0,3.1-2.4,6.1-2.8c0,0-2.8,36.7,11.2,36.7c0.1,0,0.2,0,0.4,0c0,0,0,0,0,0c0.4,0,4.8-0.2,5.2-9.3
	c0.4-9.6,2.8-20,2.8-20s7.8-13.2,10.4-17.2c2.6-3.9,8-10.9,5-43.2c0,0,18.7-39.5,43-74.5c9.1-16.7,15.6-23.5,16.9-24.3
	C208.2,73.6,208.7,70.5,205.9,70.5z M354.7,248.8c-2.6,0-4.5,2-4.5,4.3c0,2.3,1.9,4.3,4.5,4.3c2.6,0,4.6-1.8,4.6-4.3
	S357.4,248.8,354.7,248.8z M256.2,11.4c-1.9,0.1-1.3,0.8-5.5,0.8c-4.2,0-4.4,0.2-5.2-1.3c-0.6-1.1-6.1-8.2-7-10
	c-0.9-1.8-1.9-0.6-1.9,0.4c0,0-0.2,10.4-1.7,14.3c-0.5,1.4-1.7,2.4-3.1,2.8c-1.4,0.4-8.4,2.4-10.5,5.2c-0.6,0.9,0.5,1.8,1.7,1.9
	c1.2,0.1,7.7,0.2,8.4,0.4c1.3,0.4,1.3,1.5,0.9,2.7c-0.4,1.1-1.8,9.2-3.2,10.2c-1.4,1,0.9,1.7,1.9,1c1-0.6,10-9.7,10.9-11
	c0.9-1.3,2.2-0.8,3.2,0.1c1,0.9,10.2,5.3,11.9,7.8c0.5,0.8,1.7-0.8,1.2-2.3c-0.5-1.5-6.8-10.9-7-12.6c-0.3-1.7,0.6-3.3,1.8-4
	c1.1-0.6,3.6-3.2,5.2-3.5c2.2-0.4,3.5-2.5,3.1-3.2C260.4,10.3,258.1,11.3,256.2,11.4z M372,270.8c0-2.1,2.3-3,4.2-3
	c2.4,0,4.2,1,5.6,2.9l4.8-4.3c-2.3-3.2-6.4-4.3-10.2-4.3c-5.8,0-11.5,2.9-11.5,9.2c0,10.9,15.4,6.2,15.4,12.1c0,2.3-2.7,3.3-4.8,3.3
	c-3,0-4.9-1.5-6.8-3.5l-4.8,4.5c2.9,3.3,6.7,4.4,11.1,4.4c5.8,0,12.3-2.4,12.3-9.2C387.4,271.7,372,275.9,372,270.8z M365.3,217.1
	c4.5,0,8.7-1.6,12.1-5.7l-5.1-3.9c-1.8,2.2-4.1,3.9-7.7,3.9c-4,0-7.2-2.6-7.7-6.8h21.8v-2c0-9.9-5.4-15.5-13.4-15.5
	c-8.6,0-15.5,6-15.5,15C349.8,211.1,356.7,217.1,365.3,217.1z M364.3,192.5c4.5,0,7.2,2.6,7.3,6.8h-14.6
	C357.5,195.2,360.1,192.5,364.3,192.5z M351.2,291.3h7.1v-28.5h-7.1V291.3z M323.2,249.2h-16.6v42.1h15.7c10.1,0,22.3-6.7,22.3-21.1
	C344.6,256,334.3,249.2,323.2,249.2z M319.7,284.5h-5.6V256h6.8c9.2,0,15.8,4,15.8,14.3C336.8,280.5,329.1,284.5,319.7,284.5z
	 M323.3,174.3h-16.6v42.1h15.7c10.1,0,22.3-6.7,22.3-21.1C344.7,181.1,334.4,174.3,323.3,174.3z M319.8,209.6h-5.6v-28.5h6.8
	c9.2,0,15.8,4,15.8,14.3C336.9,205.6,329.2,209.6,319.8,209.6z M442.4,211.4l-5.1-3.9c-1.8,2.2-4.1,3.9-7.7,3.9
	c-4,0-7.2-2.6-7.7-6.8h21.8v-2c0-9.9-5.4-15.5-13.4-15.5c-8.6,0-15.5,6-15.5,15c0,9,6.9,15,15.5,15
	C434.8,217.1,439.1,215.5,442.4,211.4z M429.3,192.5c4.5,0,7.2,2.6,7.3,6.8h-14.6C422.5,195.2,425.1,192.5,429.3,192.5z
	 M673.9,270.8c0-2.1,2.2-3,4.1-3c2.4,0,4.2,1,5.6,2.9l4.7-4.3c-2.3-3.2-6.4-4.3-10.2-4.3c-5.8,0-11.5,2.9-11.5,9.2
	c0,10.9,15.4,6.2,15.4,12.1c0,2.3-2.7,3.3-4.8,3.3c-3,0-4.9-1.5-6.8-3.5l-4.8,4.5c2.9,3.3,6.7,4.4,11.1,4.4c5.8,0,12.3-2.4,12.3-9.2
	C689.3,271.7,673.9,275.9,673.9,270.8z M786.2,291.3h7.1v-28.5h-7.1V291.3z M789.8,248.8c-2.6,0-4.5,2-4.5,4.3
	c0,2.3,1.9,4.3,4.5,4.3c2.6,0,4.6-1.8,4.6-4.3S792.4,248.8,789.8,248.8z M735.3,262c-8.6,0-15.5,6-15.5,15c0,9,6.9,15,15.5,15
	c8.6,0,15.5-6,15.5-15C750.8,268,743.9,262,735.3,262z M735.3,285.6c-5.2,0-8.4-4.1-8.4-8.6c0-4.5,3.2-8.6,8.4-8.6
	c5.2,0,8.4,4.1,8.4,8.6C743.7,281.5,740.5,285.6,735.3,285.6z M700.3,270.8c0-2.1,2.2-3,4.2-3c2.4,0,4.2,1,5.6,2.9l4.8-4.3
	c-2.3-3.2-6.4-4.3-10.2-4.3c-5.8,0-11.5,2.9-11.5,9.2c0,10.9,15.4,6.2,15.4,12.1c0,2.3-2.7,3.3-4.8,3.3c-3,0-4.9-1.5-6.8-3.5
	l-4.7,4.5c2.9,3.3,6.7,4.4,11.1,4.4c5.9,0,12.3-2.4,12.3-9.2C715.7,271.7,700.3,275.9,700.3,270.8z M700.3,212.5h0.2v3.9h6.4V200
	c0-4,0-12.8-12.2-12.8c-4.5,0-9,1.4-12.1,4.6l3.8,3.8c1.9-1.8,4.6-3,7.6-3c3.8,0,6.6,1.8,6.6,5.4v0.8h-1.8c-7.1,0-18,0.6-18,9.9
	c0,5.6,5.1,8.6,10.4,8.6C695,217.1,698.3,215.7,700.3,212.5z M692.9,211.8c-2.3,0-5-1.1-5-3.8c0-4.1,6.8-4.4,10.7-4.4h1.5v1.6
	C700.1,209.2,697.8,211.8,692.9,211.8z M771.6,268.5c1.9,0,3.8,1.1,5.4,2.9l4.9-4.9c-2.7-3-6.7-4.3-10.3-4.3c-8.6,0-15.5,6-15.5,15
	c0,9,6.9,15,15.5,15c2.5,0,7.4-1.1,10.3-4l-4.8-5.1c-1.3,1.7-3.3,2.7-5.5,2.7c-5.2,0-8.4-4.1-8.4-8.6
	C763.2,272.6,766.3,268.5,771.6,268.5z M813.7,262c-4.5,0-9,1.4-12.1,4.6l3.7,3.8c1.9-1.8,4.6-3,7.6-3c3.8,0,6.5,1.8,6.5,5.4v0.8
	h-1.8c-7.1,0-18,0.6-18,9.9c0,5.6,5.1,8.6,10.4,8.6c3.8,0,7.1-1.4,9.2-4.6h0.2v3.9h6.4v-16.4C825.9,270.8,825.9,262,813.7,262z
	 M819,280.1c0,4-2.3,6.5-7.2,6.5c-2.3,0-5-1.1-5-3.8c0-4.1,6.8-4.4,10.7-4.4h1.5V280.1z M860.3,248.8c-2.6,0-4.5,2-4.5,4.3
	c0,2.3,1.9,4.3,4.5,4.3c2.6,0,4.6-1.8,4.6-4.3S862.9,248.8,860.3,248.8z M924,262c-4.8,0-7.4,2.4-8.8,5.3h-0.1v-4.6h-6.8v28.5h7.1
	v-15.6c0-3.8,1.8-7.3,6.5-7.3c5,0,5.2,5.2,5.2,8.4v14.4h7.1v-18C934.4,267.4,931.7,262,924,262z M886.2,262c-8.6,0-15.5,6-15.5,15
	c0,9,6.9,15,15.5,15c8.6,0,15.5-6,15.5-15C901.7,268,894.8,262,886.2,262z M886.2,285.6c-5.2,0-8.4-4.1-8.4-8.6
	c0-4.5,3.2-8.6,8.4-8.6c5.2,0,8.4,4.1,8.4,8.6C894.6,281.5,891.4,285.6,886.2,285.6z M856.8,291.3h7.1v-28.5h-7.1V291.3z
	 M843.2,254.5h-7.1v8.3h-5.9v6.1h5.9v13.1c0,6.7,1.8,10.1,9.4,10.1c1.7,0,4.1-0.2,5.6-1v-6c-0.9,0.7-2.6,0.9-3.9,0.9
	c-3.1,0-4-1.8-4-4.6v-12.5h7.9v-6.1h-7.9V254.5z M677.1,216.2v-6c-0.9,0.7-2.6,0.9-3.9,0.9c-3.2,0-4-1.8-4-4.6v-12.5h7.9v-6.1h-7.9
	v-8.3h-7.1v8.3h-5.9v6.1h5.9V207c0,6.7,1.8,10.1,9.4,10.1C673.1,217.1,675.6,216.9,677.1,216.2z M518.4,254.5h-7.1v8.3h-5.9v6.1h5.9
	v13.1c0,6.7,1.8,10.1,9.3,10.1c1.7,0,4.2-0.2,5.6-1v-6c-0.9,0.7-2.6,0.9-3.9,0.9c-3.2,0-4-1.8-4-4.6v-12.5h7.9v-6.1h-7.9V254.5z
	 M518.8,187.1c-4,0-7.7,1.5-9.8,5h-0.1v-4.3h-6.8V230h7.1v-17.2h0.2c1.5,1.9,4.3,4.3,9.7,4.3c8.1,0,13.8-6.6,13.8-15
	C532.9,193.7,527.6,187.1,518.8,187.1z M517.4,210.7c-5.2,0-8.4-4.1-8.4-8.6c0-4.5,3.2-8.6,8.4-8.6c5.2,0,8.4,4.1,8.4,8.6
	C525.8,206.6,522.6,210.7,517.4,210.7z M535.5,248.8c-2.6,0-4.5,2-4.5,4.3c0,2.3,1.9,4.3,4.5,4.3c2.6,0,4.6-1.8,4.6-4.3
	S538.1,248.8,535.5,248.8z M532,291.3h7.1v-28.5H532V291.3z M493.4,291.3h7.1v-28.5h-7.1V291.3z M496.9,248.8c-2.6,0-4.5,2-4.5,4.3
	c0,2.3,1.9,4.3,4.5,4.3c2.6,0,4.6-1.8,4.6-4.3S499.5,248.8,496.9,248.8z M479.9,187.1c-8.6,0-15.5,6-15.5,15c0,9,6.9,15,15.5,15
	c8.6,0,15.5-6,15.5-15C495.4,193.2,488.5,187.1,479.9,187.1z M479.9,210.7c-5.2,0-8.4-4.1-8.4-8.6c0-4.5,3.2-8.6,8.4-8.6
	c5.2,0,8.4,4.1,8.4,8.6C488.3,206.6,485.1,210.7,479.9,210.7z M561.4,262c-8.6,0-15.5,6-15.5,15c0,9,6.9,15,15.5,15
	c4.5,0,8.7-1.6,12.1-5.7l-5.1-3.9c-1.8,2.2-4.1,3.9-7.7,3.9c-4,0-7.2-2.6-7.7-6.8h21.8v-2C574.8,267.6,569.4,262,561.4,262z
	 M553,274.2c0.5-4.1,3.2-6.8,7.4-6.8c4.5,0,7.2,2.6,7.3,6.8H553z M605.4,187.1c-8.6,0-15.5,6-15.5,15c0,9,6.9,15,15.5,15
	c4.5,0,8.8-1.6,12.1-5.7l-5.1-3.9c-1.8,2.2-4.1,3.9-7.7,3.9c-4,0-7.2-2.6-7.7-6.8h21.8v-2C618.8,192.7,613.3,187.1,605.4,187.1z
	 M597,199.3c0.5-4.1,3.1-6.8,7.4-6.8c4.4,0,7.2,2.6,7.2,6.8H597z M639.7,249.2l-18.3,42.1h8.4l3.8-9.6h18.3l3.9,9.6h8.6l-18.1-42.1
	H639.7z M636.2,275.2l6.6-17.1l6.5,17.1H636.2z M583.5,216.4v-17c0-6.8-2.7-12.3-10.3-12.3c-4.3,0-7.3,1.7-9.4,5.3
	c-1.5-3.6-4.5-5.3-8.9-5.3c-4.8,0-7.5,2.5-8.7,5.2H546v-4.5h-6.8v28.5h7.1v-15.6c0-3.8,1.9-7.3,6.5-7.3c3.5,0,4.9,2.3,4.9,5.8v17
	h7.1v-15.5c0-3.7,1.7-7.4,6.1-7.4c4.2,0,5.3,3.1,5.3,6.7v16.2H583.5z M586.9,270.8c0-2.1,2.3-3,4.2-3c2.4,0,4.2,1,5.6,2.9l4.8-4.3
	c-2.3-3.2-6.4-4.3-10.2-4.3c-5.8,0-11.5,2.9-11.5,9.2c0,10.9,15.4,6.2,15.4,12.1c0,2.3-2.7,3.3-4.8,3.3c-3,0-4.9-1.5-6.8-3.5
	l-4.8,4.5c2.9,3.3,6.7,4.4,11.1,4.4c5.8,0,12.3-2.4,12.3-9.2C602.3,271.7,586.9,275.9,586.9,270.8z"/>
</svg>
